HIERARCHY
ROOT Hips
{
  OFFSET 387.421 88.6843 214.036
  CHANNELS 6 Xposition Yposition Zposition Zrotation Xrotation Yrotation
  JOINT RightUpLeg
  {
    OFFSET -9.26436 -1.54477 -0.00764244
    CHANNELS 6 Xposition Yposition Zposition Zrotation Xrotation Yrotation
    JOINT RightLeg
    {
      OFFSET 0.0270022 -41.8848 0.0384645
      CHANNELS 6 Xposition Yposition Zposition Zrotation Xrotation Yrotation
      JOINT RightFoot
      {
        OFFSET -0.025595 -42.7341 0.117519
        CHANNELS 6 Xposition Yposition Zposition Zrotation Xrotation Yrotation
        End Site
        {
          OFFSET 0 -7.69 17.5
        }
      }
    }
  }
  JOINT LeftUpLeg
  {
    OFFSET 9.28281 -1.63184 0.00655276
    CHANNELS 6 Xposition Yposition Zposition Zrotation Xrotation Yrotation
    JOINT LeftLeg
    {
      OFFSET 0.00578543 -41.8941 0.0117795
      CHANNELS 6 Xposition Yposition Zposition Zrotation Xrotation Yrotation
      JOINT LeftFoot
      {
        OFFSET 0.253805 -40.8902 0.809143
        CHANNELS 6 Xposition Yposition Zposition Zrotation Xrotation Yrotation
        End Site
        {
          OFFSET 0 -7.69 17.5
        }
      }
    }
  }
  JOINT Spine
  {
    OFFSET 0.0394198 14.2977 0.0482998
    CHANNELS 6 Xposition Yposition Zposition Zrotation Xrotation Yrotation
    JOINT Spine1
    {
      OFFSET 0.0185445 9.7211 0.00403905
      CHANNELS 6 Xposition Yposition Zposition Zrotation Xrotation Yrotation
      JOINT Spine2
      {
        OFFSET 0.0372782 10.12 -0.00275739
        CHANNELS 6 Xposition Yposition Zposition Zrotation Xrotation Yrotation
        JOINT Spine3
        {
          OFFSET 0.0364147 9.71545 0.000223414
          CHANNELS 6 Xposition Yposition Zposition Zrotation Xrotation Yrotation
          JOINT Neck
          {
            OFFSET 0.0404691 10.3836 0.0270997
            CHANNELS 6 Xposition Yposition Zposition Zrotation Xrotation Yrotation
            JOINT Head
            {
              OFFSET 0.0380418 9.46716 0.0275485
              CHANNELS 6 Xposition Yposition Zposition Zrotation Xrotation Yrotation
              End Site
              {
                OFFSET 0 15.95 0
              }
            }
          }
          JOINT RightShoulder
          {
            OFFSET -3.18046 6.93005 -0.001272
            CHANNELS 6 Xposition Yposition Zposition Zrotation Xrotation Yrotation
            JOINT RightArm
            {
              OFFSET -12.7905 0.0116363 0.0171043
              CHANNELS 6 Xposition Yposition Zposition Zrotation Xrotation Yrotation
              JOINT RightForeArm
              {
                OFFSET -26.5166 -0.00474565 0.042073
                CHANNELS 6 Xposition Yposition Zposition Zrotation Xrotation Yrotation
                JOINT RightHand
                {
                  OFFSET -25.9858 -0.0984063 0.163753
                  CHANNELS 6 Xposition Yposition Zposition Zrotation Xrotation Yrotation
                  JOINT RightHandThumb1
                  {
                    OFFSET -2.48905 0.190105 3.12053
                    CHANNELS 6 Xposition Yposition Zposition Zrotation Xrotation Yrotation
                    JOINT RightHandThumb2
                    {
                      OFFSET -3.68274 0 0
                      CHANNELS 6 Xposition Yposition Zposition Zrotation Xrotation Yrotation
                      JOINT RightHandThumb3
                      {
                        OFFSET -2.55832 0 0
                        CHANNELS 6 Xposition Yposition Zposition Zrotation Xrotation Yrotation
                        End Site
                        {
                          OFFSET -2.194 0 0
                        }
                      }
                    }
                  }
                  JOINT RightInHandIndex
                  {
                    OFFSET -3.22368 0.508421 1.97842
                    CHANNELS 6 Xposition Yposition Zposition Zrotation Xrotation Yrotation
                    JOINT RightHandIndex1
                    {
                      OFFSET -5.21684 -0.091368 0.999158
                      CHANNELS 6 Xposition Yposition Zposition Zrotation Xrotation Yrotation
                      JOINT RightHandIndex2
                      {
                        OFFSET -3.61937 0 0
                        CHANNELS 6 Xposition Yposition Zposition Zrotation Xrotation Yrotation
                        JOINT RightHandIndex3
                        {
                          OFFSET -2.0521 0 0
                          CHANNELS 6 Xposition Yposition Zposition Zrotation Xrotation Yrotation
                          End Site
                          {
                            OFFSET -1.805 0 0
                          }
                        }
                      }
                    }
                  }
                  JOINT RightInHandMiddle
                  {
                    OFFSET -3.38211 0.517263 0.756737
                    CHANNELS 6 Xposition Yposition Zposition Zrotation Xrotation Yrotation
                    JOINT RightHandMiddle1
                    {
                      OFFSET -5.17411 -0.084 0.313895
                      CHANNELS 6 Xposition Yposition Zposition Zrotation Xrotation Yrotation
                      JOINT RightHandMiddle2
                      {
                        OFFSET -3.94947 0 0
                        CHANNELS 6 Xposition Yposition Zposition Zrotation Xrotation Yrotation
                        JOINT RightHandMiddle3
                        {
                          OFFSET -2.47579 0 0
                          CHANNELS 6 Xposition Yposition Zposition Zrotation Xrotation Yrotation
                          End Site
                          {
                            OFFSET -1.975 0 0
                          }
                        }
                      }
                    }
                  }
                  JOINT RightInHandRing
                  {
                    OFFSET -3.36516 0.537895 -0.128947
                    CHANNELS 6 Xposition Yposition Zposition Zrotation Xrotation Yrotation
                    JOINT RightHandRing1
                    {
                      OFFSET -4.63474 -0.022105 -0.478947
                      CHANNELS 6 Xposition Yposition Zposition Zrotation Xrotation Yrotation
                      JOINT RightHandRing2
                      {
                        OFFSET -3.44238 0 0
                        CHANNELS 6 Xposition Yposition Zposition Zrotation Xrotation Yrotation
                        JOINT RightHandRing3
                        {
                          OFFSET -2.3881 0 0
                          CHANNELS 6 Xposition Yposition Zposition Zrotation Xrotation Yrotation
                          End Site
                          {
                            OFFSET -1.857 0 0
                          }
                        }
                      }
                    }
                  }
                  JOINT RightInHandPinky
                  {
                    OFFSET -3.16105 0.469368 -1.20179
                    CHANNELS 6 Xposition Yposition Zposition Zrotation Xrotation Yrotation
                    JOINT RightHandPinky1
                    {
                      OFFSET -4.14105 -0.022105 -1.09053
                      CHANNELS 6 Xposition Yposition Zposition Zrotation Xrotation Yrotation
                      JOINT RightHandPinky2
                      {
                        OFFSET -2.75653 0 0
                        CHANNELS 6 Xposition Yposition Zposition Zrotation Xrotation Yrotation
                        JOINT RightHandPinky3
                        {
                          OFFSET -1.74189 0 0
                          CHANNELS 6 Xposition Yposition Zposition Zrotation Xrotation Yrotation
                          End Site
                          {
                            OFFSET -1.645 0 0
                          }
                        }
                      }
                    }
                  }
                }
              }
            }
          }
          JOINT LeftShoulder
          {
            OFFSET 3.22994 6.91218 -0.0101458
            CHANNELS 6 Xposition Yposition Zposition Zrotation Xrotation Yrotation
            JOINT LeftArm
            {
              OFFSET 12.815 -0.0554782 -0.0520121
              CHANNELS 6 Xposition Yposition Zposition Zrotation Xrotation Yrotation
              JOINT LeftForeArm
              {
                OFFSET 26.5031 -0.0658343 -0.024575
                CHANNELS 6 Xposition Yposition Zposition Zrotation Xrotation Yrotation
                JOINT LeftHand
                {
                  OFFSET 25.9873 -0.0450233 -0.0175433
                  CHANNELS 6 Xposition Yposition Zposition Zrotation Xrotation Yrotation
                  JOINT LeftHandThumb1
                  {
                    OFFSET 2.48905 0.190105 3.12053
                    CHANNELS 6 Xposition Yposition Zposition Zrotation Xrotation Yrotation
                    JOINT LeftHandThumb2
                    {
                      OFFSET 3.68274 0 0
                      CHANNELS 6 Xposition Yposition Zposition Zrotation Xrotation Yrotation
                      JOINT LeftHandThumb3
                      {
                        OFFSET 2.55832 0 0
                        CHANNELS 6 Xposition Yposition Zposition Zrotation Xrotation Yrotation
                        End Site
                        {
                          OFFSET 2.194 0 0
                        }
                      }
                    }
                  }
                  JOINT LeftInHandIndex
                  {
                    OFFSET 3.22368 0.508421 1.97842
                    CHANNELS 6 Xposition Yposition Zposition Zrotation Xrotation Yrotation
                    JOINT LeftHandIndex1
                    {
                      OFFSET 5.21684 -0.091368 0.999158
                      CHANNELS 6 Xposition Yposition Zposition Zrotation Xrotation Yrotation
                      JOINT LeftHandIndex2
                      {
                        OFFSET 3.61937 0 0
                        CHANNELS 6 Xposition Yposition Zposition Zrotation Xrotation Yrotation
                        JOINT LeftHandIndex3
                        {
                          OFFSET 2.0521 0 0
                          CHANNELS 6 Xposition Yposition Zposition Zrotation Xrotation Yrotation
                          End Site
                          {
                            OFFSET 1.805 0 0
                          }
                        }
                      }
                    }
                  }
                  JOINT LeftInHandMiddle
                  {
                    OFFSET 3.38211 0.517263 0.756737
                    CHANNELS 6 Xposition Yposition Zposition Zrotation Xrotation Yrotation
                    JOINT LeftHandMiddle1
                    {
                      OFFSET 5.17411 -0.084 0.313895
                      CHANNELS 6 Xposition Yposition Zposition Zrotation Xrotation Yrotation
                      JOINT LeftHandMiddle2
                      {
                        OFFSET 3.94947 0 0
                        CHANNELS 6 Xposition Yposition Zposition Zrotation Xrotation Yrotation
                        JOINT LeftHandMiddle3
                        {
                          OFFSET 2.47579 0 0
                          CHANNELS 6 Xposition Yposition Zposition Zrotation Xrotation Yrotation
                          End Site
                          {
                            OFFSET 1.975 0 0
                          }
                        }
                      }
                    }
                  }
                  JOINT LeftInHandRing
                  {
                    OFFSET 3.36516 0.537895 -0.128947
                    CHANNELS 6 Xposition Yposition Zposition Zrotation Xrotation Yrotation
                    JOINT LeftHandRing1
                    {
                      OFFSET 4.63474 -0.022105 -0.478947
                      CHANNELS 6 Xposition Yposition Zposition Zrotation Xrotation Yrotation
                      JOINT LeftHandRing2
                      {
                        OFFSET 3.44238 0 0
                        CHANNELS 6 Xposition Yposition Zposition Zrotation Xrotation Yrotation
                        JOINT LeftHandRing3
                        {
                          OFFSET 2.3881 0 0
                          CHANNELS 6 Xposition Yposition Zposition Zrotation Xrotation Yrotation
                          End Site
                          {
                            OFFSET 1.857 0 0
                          }
                        }
                      }
                    }
                  }
                  JOINT LeftInHandPinky
                  {
                    OFFSET 3.16105 0.469368 -1.20179
                    CHANNELS 6 Xposition Yposition Zposition Zrotation Xrotation Yrotation
                    JOINT LeftHandPinky1
                    {
                      OFFSET 4.14105 -0.022105 -1.09053
                      CHANNELS 6 Xposition Yposition Zposition Zrotation Xrotation Yrotation
                      JOINT LeftHandPinky2
                      {
                        OFFSET 2.75653 0 0
                        CHANNELS 6 Xposition Yposition Zposition Zrotation Xrotation Yrotation
                        JOINT LeftHandPinky3
                        {
                          OFFSET 1.74189 0 0
                          CHANNELS 6 Xposition Yposition Zposition Zrotation Xrotation Yrotation
                          End Site
                          {
                            OFFSET 1.645 0 0
                          }
                        }
                      }
                    }
                  }
                }
              }
            }
          }
        }
      }
    }
  }
}
MOTION
Frames:	3
Frame Time:	0.00833333
376.672 87.7134 214.964 25.9048 0.821672 -126.549 -9.24322 -1.48959 -0.0493813 36.6094 -38.7507 35.2662 0.0208845 -41.876 0.106017 -7.40112 16.2795 -2.80996 1.12177 -41.852 -0.653544 4.38002 8.50374 48.9803 9.28061 -1.60315 0.0844848 36.4667 -20.4715 25.1685 0.0737189 -41.8967 -0.0270435 -23.8149 43.1616 26.9658 0.0733233 -41.8764 -0.24414 -4.40975 -28.5402 1.77994 0.00305324 14.3003 0.0518433 -5.20208 -4.80346 -11.5009 0.00709638 9.71689 0.0208421 -1.21103 -1.37484 -2.76821 -0.018082 10.1198 -0.0775822 -2.031 -2.30429 -4.50252 -0.00931829 9.71988 -0.0127268 -0.591366 -0.301995 2.56939 -0.0183164 10.3824 0.190354 -1.12499 -4.63948 29.116 -0.176183 9.44052 0.111246 -10.0227 5.0757 31.099 -3.19163 6.91584 0.0517051 -0.835821 -0.148562 5.29022 -12.8138 -0.022748 0.173008 8.72185 -64.2801 -20.9747 -26.44 -0.0637531 -0.0062144 38.8925 2.54276 119.601 -26.0019 -0.0453895 0.0193705 18.1754 -22.9596 3.42568 -2.48905 0.190105 3.12053 28.184 10.7294 19.1592 -3.68274 5.68434e-14 1.13687e-13 3.11232e-16 1.19271e-15 -10 -2.55832 -5.68434e-14 0 5.30282e-15 5.96354e-16 -10 -3.22368 0.508421 1.97842 -1.27222e-14 0 -7.95139e-16 -5.21684 -0.091368 0.999158 19.9818 0.871897 2.3964 -3.61937 5.68434e-14 0 24 -1.59028e-15 1.59028e-15 -2.0521 0 0 20 9.93923e-17 -0 -3.38211 0.517263 0.756737 -1.27222e-14 0 -7.95139e-16 -5.17411 -0.084 0.313895 20 0 -0 -3.94947 0 5.68434e-14 24 1.59028e-15 -1.59028e-15 -2.47579 0 -5.68434e-14 20 -5.96354e-16 1.59028e-15 -3.36516 0.537895 -0.128947 -1.27222e-14 0 -7.95139e-16 -4.63474 -0.022105 -0.478947 19.9748 -1.02565 -2.81938 -3.44238 0 -5.68434e-14 24 1.59028e-15 -1.59028e-15 -2.3881 0 0 20 4.77083e-15 -1.59028e-15 -3.16105 0.469368 -1.20179 -1.27222e-14 0 -7.95139e-16 -4.14105 -0.022105 -1.09053 19.7815 -3.00948 -8.30515 -2.75653 -2.84217e-14 0 24 -1.59028e-15 7.95139e-16 -1.74189 1.42109e-14 0 20 -3.18055e-15 -0 3.21042 6.90187 -0.0432285 3.7849 -22.9954 -50.9423 12.7853 -0.0440704 -0.0458229 -15.3641 25.0487 -114.922 26.5192 -0.0479212 0.00372583 37.2209 -14.4653 -35.2429 25.9495 0.0400066 0.157607 -31.3721 -16.1105 -12.9905 2.48905 0.190105 3.12053 -28.184 10.7294 -19.1592 3.68274 0 0 -1.13255e-15 -1.59028e-15 10 2.55832 0 -1.42109e-14 1.02187e-15 0 10 3.22368 0.508421 1.97842 -1.91641e-15 3.97569e-16 -0 5.21684 -0.091368 0.999158 -19.9818 0.871897 -2.3964 3.61937 0 -2.84217e-14 -24 1.49089e-16 -3.97569e-16 2.0521 -5.68434e-14 2.84217e-14 -20 0 -0 3.38211 0.517263 0.756737 -1.91641e-15 3.97569e-16 -0 5.17411 -0.084 0.313895 -20 7.95139e-16 -2.48481e-16 3.94947 5.68434e-14 0 -24 7.95139e-16 -0 2.47579 -5.68434e-14 0 -20 3.97569e-16 -0 3.36516 0.537895 -0.128947 -1.91641e-15 3.97569e-16 -0 4.63474 -0.022105 -0.478947 -19.9748 -1.02565 2.81938 3.44238 1.42109e-14 0 -24 0 5.96354e-16 2.3881 -5.68434e-14 0 -20 7.95139e-16 8.94531e-16 3.16105 0.469368 -1.20179 -1.91641e-15 3.97569e-16 -0 4.14105 -0.022105 -1.09053 -19.7815 -3.00948 8.30515 2.75653 0 0 -24 1.59028e-15 -1.59028e-15 1.74189 0 0 -20 1.59028e-15 1.59028e-15 
376.666 87.7126 214.991 25.697 0.83492 -127.388 -9.24008 -1.47175 0.0333515 36.8664 -38.1917 35.6972 0.0225083 -41.8757 0.114582 -7.35883 16.2522 -2.76408 1.13393 -41.8736 -0.663119 4.28918 8.57669 49.2 9.27845 -1.61615 0.00186978 36.5124 -19.8838 25.4437 0.0715093 -41.9049 -0.0157082 -23.9678 43.1739 27.0986 0.0672716 -41.8605 -0.244648 -4.17292 -28.5367 2.06607 0.0249261 14.3004 0.0829769 -5.27164 -4.83976 -11.2047 0.00766244 9.71695 0.0204966 -1.22991 -1.38376 -2.69157 -0.0177108 10.1199 -0.0763949 -2.06219 -2.32011 -4.37814 -0.0091491 9.71999 -0.0127551 -0.586121 -0.292089 2.5741 -0.014826 10.3826 0.189753 -1.10584 -4.55507 29.2359 -0.176113 9.44174 0.111775 -9.96162 5.2277 31.0865 -3.19146 6.91528 0.0464978 -0.878195 -0.093608 5.21327 -12.8133 -0.0229524 0.162603 8.25482 -64.2112 -21.3809 -26.4408 -0.0628368 -0.00615352 38.5753 2.48677 119.843 -26.0035 -0.0397519 0.0214349 17.987 -22.8725 3.30006 -2.48905 0.190105 3.12053 28.184 10.7294 19.1592 -3.68274 5.68434e-14 0 4.38454e-15 -3.18055e-15 -10 -2.55832 0 0 4.94808e-15 -1.98785e-15 -10 -3.22368 0.508421 1.97842 -1.2921e-15 3.18055e-15 -2.38542e-15 -5.21684 -0.091368 0.999158 19.9818 0.871897 2.3964 -3.61937 0 0 24 1.59028e-15 1.59028e-15 -2.0521 0 0 20 -2.98177e-16 -0 -3.38211 0.517263 0.756737 -1.2921e-15 3.18055e-15 -2.38542e-15 -5.17411 -0.084 0.313895 20 0 1.59028e-15 -3.94947 0 0 24 -2.38542e-15 -3.18055e-15 -2.47579 0 5.68434e-14 20 -3.97569e-16 1.59028e-15 -3.36516 0.537895 -0.128947 -1.2921e-15 3.18055e-15 -2.38542e-15 -4.63474 -0.022105 -0.478947 19.9748 -1.02565 -2.81938 -3.44238 0 0 24 1.59028e-15 -0 -2.3881 2.84217e-14 0 20 0 -3.18055e-15 -3.16105 0.469368 -1.20179 -1.2921e-15 3.18055e-15 -2.38542e-15 -4.14105 -0.022105 -1.09053 19.7815 -3.00948 -8.30515 -2.75653 -2.84217e-14 0 24 0 -1.59028e-15 -1.74189 0 0 20 0 -1.59028e-15 3.18192 6.9081 -0.0211968 3.98053 -22.8652 -50.6088 12.7765 -0.0381151 -0.011367 -15.2563 24.8283 -115.221 26.4919 -0.0479095 0.0459042 37.1651 -14.6162 -35.3822 25.9809 -0.0381493 -0.0789691 -31.3152 -15.3047 -15.2738 2.48905 0.190105 3.12053 -28.184 10.7294 -19.1592 3.68274 0 5.68434e-14 -2.42221e-15 0 10 2.55832 0 0 -2.29319e-15 -1.59028e-15 10 3.22368 0.508421 1.97842 3.78933e-16 -1.98785e-16 -0 5.21684 -0.091368 0.999158 -19.9818 0.871897 -2.3964 3.61937 0 0 -24 0 -0 2.0521 -5.68434e-14 0 -20 7.95139e-16 7.95139e-16 3.38211 0.517263 0.756737 3.78933e-16 -1.98785e-16 -0 5.17411 -0.084 0.313895 -20 -9.93923e-17 -0 3.94947 2.84217e-14 2.84217e-14 -24 -9.93923e-17 7.95139e-16 2.47579 0 -2.84217e-14 -20 -1.98785e-16 7.95139e-16 3.36516 0.537895 -0.128947 3.78933e-16 -1.98785e-16 -0 4.63474 -0.022105 -0.478947 -19.9748 -1.02565 2.81938 3.44238 1.42109e-14 0 -24 0 -1.98785e-16 2.3881 0 0 -20 0 -1.98785e-16 3.16105 0.469368 -1.20179 3.78933e-16 -1.98785e-16 -0 4.14105 -0.022105 -1.09053 -19.7815 -3.00948 8.30515 2.75653 0 0 -24 0 1.59028e-15 1.74189 -5.68434e-14 0 -20 0 1.98785e-16 
376.67 87.7048 215.029 25.6079 0.825189 -127.785 -9.23705 -1.46289 0.0441904 36.9343 -37.9779 35.7063 0.0246589 -41.8759 0.125255 -7.33747 16.2103 -2.68319 1.14416 -41.8892 -0.655153 4.21011 8.64175 49.4284 9.27622 -1.61763 -0.0100694 36.5012 -19.6516 25.3763 0.0683531 -41.9056 -0.0157796 -24.147 43.1618 27.2627 0.0377976 -41.8325 -0.244192 -3.92847 -28.5269 2.3824 0.030956 14.3005 0.0890449 -5.31868 -4.91045 -11.1796 0.00809121 9.71701 0.0201479 -1.2405 -1.4029 -2.68283 -0.0173575 10.1199 -0.0747916 -2.07995 -2.35183 -4.36301 -0.00898639 9.72009 -0.0127838 -0.582207 -0.283269 2.57873 -0.011189 10.3828 0.189137 -1.08883 -4.48521 29.377 -0.175992 9.44297 0.112153 -9.92016 5.38658 31.062 -3.19129 6.9147 0.0471623 -0.928207 -0.028424 5.09568 -12.8128 -0.023142 0.1597 7.91503 -64.1634 -21.6349 -26.4417 -0.0626562 -0.00606177 38.2364 2.41992 120.046 -26.0028 -0.0350397 0.0196969 17.9263 -22.8449 3.26254 -2.48905 0.190105 3.12053 28.184 10.7294 19.1592 -3.68274 0 0 -2.13335e-15 2.78299e-15 -10 -2.55832 0 0 -3.43693e-15 3.97569e-15 -10 -3.22368 0.508421 1.97842 -3.97569e-15 -1.59028e-15 -7.95139e-16 -5.21684 -0.091368 0.999158 19.9818 0.871897 2.3964 -3.61937 0 0 24 -7.95139e-16 -0 -2.0521 2.84217e-14 0 20 3.97569e-16 -1.59028e-15 -3.38211 0.517263 0.756737 -3.97569e-15 -1.59028e-15 -7.95139e-16 -5.17411 -0.084 0.313895 20 -1.59028e-15 -1.59028e-15 -3.94947 0 0 24 -7.95139e-16 -0 -2.47579 2.84217e-14 0 20 -1.98785e-15 3.18055e-15 -3.36516 0.537895 -0.128947 -3.97569e-15 -1.59028e-15 -7.95139e-16 -4.63474 -0.022105 -0.478947 19.9748 -1.02565 -2.81938 -3.44238 5.68434e-14 5.68434e-14 24 -7.95139e-16 -0 -2.3881 -2.84217e-14 -5.68434e-14 20 -7.95139e-16 1.59028e-15 -3.16105 0.469368 -1.20179 -3.97569e-15 -1.59028e-15 -7.95139e-16 -4.14105 -0.022105 -1.09053 19.7815 -3.00948 -8.30515 -2.75653 2.84217e-14 0 24 1.59028e-15 -0 -1.74189 1.42109e-14 0 20 -1.59028e-15 7.95139e-16 3.15299 6.91475 0.00690833 4.17584 -22.7174 -50.2193 12.7695 -0.039513 0.0265096 -15.1173 24.5873 -115.591 26.4925 -0.0515063 0.053919 37.1239 -14.8107 -35.647 25.982 -0.0436019 -0.0991138 -31.2698 -15.1605 -15.6136 2.48905 0.190105 3.12053 -28.184 10.7294 -19.1592 3.68274 0 2.84217e-14 4.87825e-15 -4.77083e-15 10 2.55832 0 -1.42109e-14 1.82811e-15 -6.36111e-15 10 3.22368 0.508421 1.97842 3.66509e-15 0 -3.97569e-16 5.21684 -0.091368 0.999158 -19.9818 0.871897 -2.3964 3.61937 0 -2.84217e-14 -24 7.95139e-16 2.38542e-15 2.0521 0 0 -20 0 -3.97569e-16 3.38211 0.517263 0.756737 3.66509e-15 0 -3.97569e-16 5.17411 -0.084 0.313895 -20 9.93923e-17 -7.95139e-16 3.94947 2.84217e-14 0 -24 0 -0 2.47579 -5.68434e-14 2.84217e-14 -20 0 -0 3.36516 0.537895 -0.128947 3.66509e-15 0 -3.97569e-16 4.63474 -0.022105 -0.478947 -19.9748 -1.02565 2.81938 3.44238 -1.42109e-14 0 -24 9.93923e-17 9.93923e-17 2.3881 -5.68434e-14 2.84217e-14 -20 4.96962e-17 1.98785e-16 3.16105 0.469368 -1.20179 3.66509e-15 0 -3.97569e-16 4.14105 -0.022105 -1.09053 -19.7815 -3.00948 8.30515 2.75653 0 0 -24 0 7.95139e-16 1.74189 -5.68434e-14 0 -20 -7.95139e-16 -1.39149e-15 
